<svg width="1150" height="720" viewBox="0 0 1150 720" fill="none" xmlns="http://www.w3.org/2000/svg">
<g clip-path="url(#clip0_10_872)">
<path opacity="0.1" d="M1150 462.439C1150.02 481.947 1147.7 501.384 1143.1 520.32C1141.55 526.7 1139.75 532.948 1137.7 539.063C1135.19 546.612 1132.28 554.016 1128.99 561.246C1127.33 564.903 1125.57 568.487 1123.73 571.999C1123.76 592.003 1119.71 611.796 1111.84 630.128C1097.62 663.018 1072.26 689.612 1040.39 705.063C1020.46 714.741 998.685 719.831 976.605 719.97H218.309C184.571 720.043 151.415 711.022 122.213 693.823L121.764 693.564C117.605 691.086 113.55 688.463 109.599 685.693C100.709 679.442 92.3568 672.433 84.6326 664.743C74.1779 654.344 64.9655 642.725 57.1866 630.128C38.9165 600.599 29.2379 566.407 29.2719 531.51C10.7695 498.465 -0.0195312 458.881 -0.0195312 416.345C-0.0195312 362.678 17.1257 313.722 45.2943 276.662C51.1669 268.92 57.5996 261.635 64.5387 254.868C71.3854 248.171 78.7445 242.04 86.5463 236.532C92.7883 232.12 99.312 228.135 106.074 224.606C108.896 223.145 111.727 221.763 114.607 220.481C117.136 219.338 119.694 218.275 122.282 217.271C125.387 216.072 128.531 214.969 131.714 213.962C134.897 212.955 138.037 212.073 141.136 211.318C145.692 210.185 150.327 209.264 155.039 208.555C158.945 207.969 162.85 207.561 166.756 207.253C169.861 207.015 172.995 206.886 176.149 206.846H177.857C181.333 206.846 184.79 206.985 188.217 207.223C188.578 206.488 188.969 205.743 189.33 205.017C190.697 202.364 192.113 199.72 193.538 197.136C193.535 197.113 193.535 197.09 193.538 197.067C193.782 196.609 194.026 196.162 194.28 195.725C195.432 193.608 196.633 191.511 197.863 189.434C198.43 188.44 198.986 187.506 199.562 186.572C199.684 186.34 199.818 186.114 199.963 185.896C200.548 184.902 201.144 183.908 201.749 182.914C204.763 178.011 207.897 173.195 211.152 168.464L211.982 167.252C212.49 166.516 212.958 165.801 213.525 165.065C214.872 163.147 216.258 161.219 217.655 159.331C218.631 157.979 219.607 156.638 220.662 155.355C223.2 152.043 225.804 148.73 228.473 145.417C231.142 142.104 233.915 138.835 236.792 135.608C237.182 135.161 237.573 134.724 237.983 134.286L242.152 129.655C242.357 129.436 242.533 129.238 242.728 129.039C243.226 128.492 243.704 127.946 244.241 127.419C246.477 125.004 248.772 122.639 251.076 120.283C262.803 108.394 275.296 97.3152 288.472 87.1191C288.989 86.7017 289.516 86.3042 290.034 85.9066C292.514 84.0084 295.033 82.1301 297.552 80.2816C311.408 70.1639 325.892 60.9683 340.913 52.7525C341.948 52.1462 343.002 51.5798 344.067 51.0232C357.533 43.7714 371.383 37.2817 385.553 31.5839C393.276 28.4732 401.175 25.5513 409.123 22.8779C414.415 21.1089 419.726 19.4294 425.106 17.8492C433.516 15.3845 441.984 13.1749 450.512 11.2203C475.633 5.48279 501.19 1.93851 526.904 0.626088C534.715 0.22193 542.613 0.0132288 550.6 -2.22566e-05C589.138 -0.0519538 627.526 4.89068 664.837 14.7087C665.222 15.3021 665.75 15.7858 666.37 16.1144C666.99 16.443 667.682 16.6056 668.381 16.587H671.662C673.087 16.9845 674.503 17.3821 675.928 17.7995C683.889 20.1317 691.736 22.6792 699.469 25.442L701.422 26.1576C720.508 33.0656 739.078 41.3692 756.988 51.0033C773.132 59.6671 788.676 69.4426 803.512 80.2617C805.797 81.9313 808.049 83.6142 810.269 85.3103C812.963 83.5546 815.704 81.8717 818.49 80.2617C829.248 74.0248 840.675 69.0662 852.546 65.4834C877.363 58.008 903.623 56.9627 928.938 62.4423C961.402 69.4488 990.792 86.8408 1014.53 111.577C1024.19 121.698 1032.79 132.816 1040.2 144.751C1040.73 145.606 1041.27 146.471 1041.79 147.345C1048.15 157.909 1053.62 169.003 1058.13 180.509C1058.3 180.937 1058.46 181.334 1058.61 181.752C1062.78 192.526 1066.14 203.605 1068.67 214.896C1068.78 215.472 1068.92 216.039 1069.04 216.615C1071.4 227.542 1073.01 238.624 1073.84 249.779C1073.84 250.177 1073.84 250.584 1073.92 251.002C1074.33 256.773 1074.54 262.603 1074.55 268.493C1074.55 273.76 1074.37 278.988 1074.05 284.176C1074.05 284.742 1073.97 285.329 1073.92 285.915C1073.83 287.416 1073.71 288.896 1073.58 290.407C1081.04 296.53 1088.02 303.232 1094.45 310.453C1097.3 313.613 1100.05 316.893 1102.71 320.292C1110.82 330.636 1117.95 341.741 1124 353.456C1140.51 385.179 1150 422.497 1150 462.439Z" fill="#427AA1"/>
<path opacity="0.1" d="M1039.67 701.386C1039.67 708.173 1016.69 714.534 976.605 720H218.309C184.571 720.073 151.415 711.052 122.214 693.852L121.764 693.594C133.286 689.32 154.083 685.335 182.388 681.738L183.657 681.579C196.35 679.998 210.537 678.498 226.042 677.076C226.432 677.076 226.833 677.017 227.223 676.967C239.526 675.854 252.612 674.811 266.483 673.837C266.923 673.837 267.352 673.757 267.792 673.737C273.142 673.346 278.604 672.975 284.175 672.624L286.324 672.485C326.892 669.921 373.007 667.874 423.017 666.522H423.075C430.079 666.323 437.158 666.148 444.312 665.995C452.266 665.803 460.318 665.634 468.467 665.488C474.687 665.349 480.984 665.25 487.302 665.151H487.448C515.949 664.713 545.396 664.495 575.508 664.495C649.967 664.495 720.344 665.876 782.705 668.361H782.881C792.469 668.738 801.882 669.156 811.06 669.583L818.871 669.961C829.227 670.464 839.316 671.004 849.138 671.581C964.644 678.269 1039.67 689.132 1039.67 701.386Z" fill="#6C63FF"/>
<g opacity="0.2">
<path d="M664.212 659.933C664.181 661.005 664.06 662.072 663.851 663.123C657.055 662.023 650.22 661.029 643.347 660.142C643.347 659.863 643.347 659.575 643.347 659.287C643.41 656.307 644.253 653.398 645.788 650.859C647.799 647.619 650.855 645.592 654.224 645.701C657.592 645.811 660.511 648.027 662.318 651.376C663.684 654.007 664.338 656.96 664.212 659.933V659.933Z" fill="#3F3D56"/>
<path d="M664.773 642.95C665.011 635.264 660.53 628.883 654.763 628.698C648.996 628.512 644.127 634.592 643.889 642.278C643.65 649.964 648.132 656.345 653.899 656.531C659.666 656.716 664.534 650.636 664.773 642.95Z" fill="#3F3D56"/>
<path d="M665.305 625.935C665.544 618.249 661.062 611.868 655.295 611.683C649.528 611.497 644.66 617.578 644.421 625.264C644.183 632.95 648.664 639.331 654.431 639.516C660.198 639.702 665.067 633.621 665.305 625.935Z" fill="#3F3D56"/>
<path d="M665.828 608.921C666.067 601.235 661.585 594.854 655.818 594.668C650.051 594.483 645.183 600.563 644.944 608.249C644.706 615.935 649.187 622.316 654.954 622.501C660.721 622.687 665.59 616.606 665.828 608.921Z" fill="#3F3D56"/>
<path d="M666.351 591.906C666.59 584.22 662.108 577.839 656.341 577.653C650.574 577.468 645.706 583.548 645.467 591.234C645.229 598.92 649.71 605.301 655.477 605.486C661.244 605.672 666.113 599.592 666.351 591.906Z" fill="#3F3D56"/>
<path d="M620.372 473.848C618.997 471.953 617.757 469.96 616.662 467.885L644.255 464.178L614.553 463.453C611.903 457.053 610.562 450.171 610.614 443.226C610.666 436.282 612.11 429.421 614.856 423.064L654.028 445.375L618.146 416.713C621.766 410.754 626.554 405.618 632.211 401.627C637.868 397.636 644.273 394.875 651.026 393.517C657.778 392.159 664.734 392.232 671.457 393.733C678.18 395.234 684.528 398.129 690.102 402.239C695.677 406.349 700.359 411.585 703.856 417.619C707.354 423.653 709.591 430.357 710.429 437.311C711.267 444.265 710.687 451.32 708.725 458.036C706.764 464.752 703.463 470.984 699.029 476.343C701.168 479.29 702.985 482.466 704.448 485.814L668.234 503.504L706.635 491.747C709.054 499.869 709.443 508.477 707.769 516.791C706.095 525.105 702.41 532.863 697.047 539.361C702.623 547.061 705.957 556.202 706.668 565.74C707.38 575.277 705.44 584.826 701.071 593.294C696.702 601.762 690.079 608.808 681.962 613.625C673.844 618.443 664.558 620.838 655.165 620.537C645.773 620.235 636.654 617.25 628.85 611.921C621.046 606.592 614.873 599.136 611.037 590.404C607.201 581.673 605.856 572.019 607.156 562.546C608.456 553.073 612.35 544.164 618.39 536.837C611.729 527.636 608.301 516.422 608.655 504.999C609.009 493.575 613.125 482.604 620.343 473.848H620.372Z" fill="#427AA1"/>
<path opacity="0.1" d="M708.764 508.215C708.422 519.645 704.293 530.622 697.047 539.361C702.623 547.061 705.957 556.202 706.668 565.74C707.38 575.277 705.44 584.826 701.071 593.294C696.702 601.762 690.079 608.808 681.962 613.625C673.844 618.443 664.558 620.838 655.165 620.537C645.773 620.235 636.654 617.249 628.85 611.921C621.046 606.592 614.873 599.136 611.037 590.404C607.201 581.673 605.856 572.019 607.156 562.546C608.456 553.073 612.35 544.164 618.39 536.837C611.975 527.962 708.94 502.5 708.764 508.215Z" fill="black"/>
</g>
<g opacity="0.2">
<path d="M515.802 659.933C515.771 661.005 515.65 662.072 515.441 663.123C508.645 662.023 501.81 661.029 494.937 660.142C494.937 659.863 494.937 659.575 494.937 659.287C495 656.307 495.843 653.398 497.378 650.859C499.389 647.619 502.445 645.592 505.814 645.701C509.182 645.811 512.102 648.027 513.908 651.376C515.274 654.007 515.928 656.96 515.802 659.933V659.933Z" fill="#3F3D56"/>
<path d="M516.352 642.954C516.591 635.268 512.109 628.887 506.342 628.702C500.575 628.516 495.707 634.597 495.468 642.283C495.23 649.968 499.711 656.35 505.478 656.535C511.245 656.721 516.114 650.64 516.352 642.954Z" fill="#3F3D56"/>
<path d="M516.885 625.939C517.124 618.254 512.642 611.872 506.875 611.687C501.108 611.501 496.24 617.582 496.001 625.268C495.762 632.954 500.244 639.335 506.011 639.52C511.778 639.706 516.646 633.625 516.885 625.939Z" fill="#3F3D56"/>
<path d="M517.408 608.925C517.647 601.239 513.165 594.858 507.398 594.672C501.631 594.487 496.762 600.567 496.524 608.253C496.285 615.939 500.767 622.32 506.534 622.505C512.301 622.691 517.169 616.611 517.408 608.925Z" fill="#3F3D56"/>
<path d="M517.931 591.91C518.169 584.224 513.688 577.843 507.921 577.657C502.154 577.472 497.285 583.552 497.047 591.238C496.808 598.924 501.29 605.305 507.057 605.491C512.824 605.676 517.692 599.596 517.931 591.91Z" fill="#3F3D56"/>
<path d="M471.963 473.848C470.588 471.953 469.348 469.96 468.252 467.885L495.845 464.178L466.143 463.453C463.493 457.053 462.153 450.171 462.205 443.226C462.257 436.282 463.7 429.421 466.446 423.064L505.618 445.375L469.736 416.713C473.356 410.754 478.144 405.618 483.801 401.627C489.459 397.636 495.864 394.875 502.616 393.517C509.369 392.159 516.324 392.232 523.047 393.733C529.771 395.234 536.118 398.129 541.693 402.239C547.267 406.349 551.949 411.585 555.447 417.619C558.944 423.653 561.182 430.357 562.019 437.311C562.857 444.265 562.277 451.32 560.316 458.036C558.354 464.752 555.054 470.984 550.62 476.343C552.758 479.29 554.575 482.466 556.039 485.814L519.825 503.504L558.226 491.747C560.644 499.869 561.034 508.477 559.36 516.791C557.685 525.105 554 532.863 548.638 539.361C554.213 547.061 557.547 556.202 558.259 565.74C558.97 575.277 557.03 584.826 552.661 593.294C548.292 601.762 541.67 608.808 533.552 613.625C525.434 618.443 516.148 620.838 506.756 620.537C497.363 620.235 488.244 617.25 480.44 611.921C472.637 606.592 466.464 599.136 462.627 590.404C458.791 581.673 457.446 572.019 458.746 562.546C460.047 553.073 463.94 544.164 469.981 536.837C463.32 527.636 459.891 516.422 460.245 504.999C460.599 493.575 464.716 482.604 471.933 473.848H471.963Z" fill="#427AA1"/>
<path opacity="0.1" d="M560.354 508.215C560.013 519.645 555.883 530.622 548.638 539.361C554.213 547.061 557.547 556.202 558.259 565.74C558.97 575.277 557.03 584.826 552.661 593.294C548.292 601.762 541.67 608.808 533.552 613.625C525.434 618.443 516.148 620.838 506.756 620.537C497.363 620.235 488.244 617.249 480.44 611.921C472.637 606.592 466.464 599.136 462.627 590.404C458.791 581.673 457.446 572.019 458.746 562.546C460.047 553.073 463.94 544.164 469.981 536.837C463.566 527.962 560.53 502.5 560.354 508.215Z" fill="black"/>
</g>
<g opacity="0.2">
<path d="M921.195 670.805C921.121 672.836 920.882 674.857 920.482 676.848C907.399 674.721 894.221 672.82 880.949 671.143C880.949 670.607 880.949 670.06 880.949 669.504C881.073 663.764 882.697 658.162 885.655 653.274C889.56 647.043 895.419 643.137 901.892 643.336C908.365 643.535 913.999 647.818 917.514 654.268C920.165 659.349 921.436 665.058 921.195 670.805V670.805Z" fill="#3F3D56"/>
<path d="M922.258 638.085C922.717 623.284 914.085 610.995 902.976 610.638C891.868 610.281 882.491 621.99 882.031 636.791C881.572 651.593 890.204 663.881 901.312 664.238C912.421 664.596 921.798 652.886 922.258 638.085Z" fill="#3F3D56"/>
<path d="M923.272 605.328C923.732 590.527 915.099 578.238 903.991 577.881C892.883 577.524 883.505 589.233 883.046 604.034C882.586 618.835 891.219 631.124 902.327 631.481C913.435 631.838 922.813 620.129 923.272 605.328Z" fill="#3F3D56"/>
<path d="M924.297 572.571C924.756 557.77 916.124 545.481 905.016 545.124C893.907 544.767 884.53 556.476 884.07 571.277C883.611 586.079 892.243 598.367 903.351 598.724C914.46 599.082 923.837 587.372 924.297 572.571Z" fill="#3F3D56"/>
<path d="M924.167 538.323C924.603 523.515 915.948 511.235 904.834 510.895C893.72 510.556 884.357 522.286 883.921 537.094C883.484 551.903 892.14 564.183 903.254 564.522C914.367 564.862 923.731 553.132 924.167 538.323Z" fill="#3F3D56"/>
<path d="M836.787 312.569C834.152 308.921 831.768 305.092 829.65 301.111L882.765 293.975L825.598 292.574C820.491 280.255 817.908 267.005 818.005 253.636C818.103 240.266 820.879 227.057 826.164 214.816L901.589 257.76L832.52 202.582C839.504 191.137 848.729 181.279 859.619 173.622C870.51 165.965 882.834 160.673 895.822 158.076C908.81 155.479 922.184 155.633 935.111 158.528C948.038 161.423 960.241 166.997 970.959 174.903C981.677 182.808 990.681 192.876 997.409 204.479C1004.14 216.081 1008.44 228.97 1010.06 242.342C1011.68 255.713 1010.58 269.281 1006.82 282.2C1003.07 295.118 996.734 307.111 988.224 317.429C992.337 323.109 995.836 329.223 998.661 335.666L928.938 369.745L1002.86 347.085C1007.52 362.703 1008.28 379.256 1005.07 395.247C1001.86 411.238 994.779 426.162 984.474 438.667C995.205 453.49 1001.62 471.087 1002.99 489.447C1004.36 507.807 1000.62 526.188 992.212 542.489C983.8 558.79 971.052 572.353 955.424 581.627C939.797 590.9 921.921 595.511 903.841 594.93C885.76 594.35 868.205 588.603 853.183 578.346C838.16 568.088 826.276 553.735 818.89 536.927C811.504 520.119 808.914 501.535 811.416 483.299C813.918 465.063 821.411 447.912 833.038 433.807C820.222 416.093 813.624 394.511 814.304 372.523C814.984 350.535 822.902 329.418 836.787 312.56V312.569Z" fill="#427AA1"/>
<path opacity="0.1" d="M1006.97 378.719C1006.33 400.711 998.417 421.84 984.513 438.686C995.244 453.509 1001.66 471.107 1003.03 489.467C1004.4 507.827 1000.66 526.208 992.251 542.509C983.839 558.81 971.091 572.373 955.464 581.646C939.836 590.92 921.96 595.53 903.88 594.95C885.799 594.37 868.244 588.623 853.222 578.365C838.199 568.108 826.315 553.755 818.929 536.947C811.543 520.139 808.953 501.555 811.455 483.319C813.957 465.083 821.45 447.932 833.077 433.827C820.638 416.723 1007.31 367.717 1006.97 378.719Z" fill="black"/>
</g>
<path d="M154.092 672.555L164.335 672.525H178.775L197.033 370.619L377.849 63.4958L369.989 54.9091V33.1641L174.44 363.503L154.092 672.555Z" fill="#F1C0C0"/>
<path opacity="0.1" d="M165.428 672.525H178.775L197.033 370.619L377.849 63.4958L369.989 54.9091L183.481 366.018L165.428 672.525Z" fill="black"/>
<path d="M123.912 675.069L592.428 711.562L592.829 711.592L1046.25 683.208L1046.59 683.189V663.7L546.978 654.367L130.151 653.96H127.105L126.773 656.146L123.912 675.069Z" fill="#F1C0C0"/>
<path opacity="0.1" d="M123.912 675.069L592.428 711.562L592.829 711.592L1046.25 683.208L1046.59 682.831V664.107H1046.19L592.428 679.531L130.151 653.96H130.083L129.263 654.507L126.773 656.146L123.912 675.069Z" fill="black"/>
<path opacity="0.1" d="M123.912 675.069L592.428 711.562V679.531L129.263 654.507L126.773 656.146L123.912 675.069Z" fill="black"/>
<path d="M369.931 54.5017L576.484 280.161L570.099 677.096L587.644 679.253L587.937 679.293H605.483L607.582 297.205L994.355 428.708L1000.88 662.855L1015 664.465L1019.78 665.011L1008.71 412.469L604.389 267.986L382.692 33.3927H369.931V54.5017Z" fill="#F1C0C0"/>
<path opacity="0.1" d="M605.99 289.9L607.582 297.205L994.355 428.708L1000.88 662.855L1015 664.465L1003.92 423.839L605.99 289.9Z" fill="black"/>
<path opacity="0.1" d="M369.931 54.5017L576.484 280.161L570.099 677.096L587.644 679.253L592.428 267.171L369.931 33.3927V54.5017Z" fill="black"/>
<path d="M606.742 449.201L748.601 477.635L748.649 477.645L997.109 527.465L1008.48 522.824L1008.44 522.009L1007.7 505.859L606.889 423.421L606.742 449.201Z" fill="#F1C0C0"/>
<path opacity="0.1" d="M748.649 477.645L997.109 527.465L1008.48 522.824L1008.44 522.009L748.649 477.645Z" fill="black"/>
<path d="M758.149 348.397L761.987 563.402L763.969 673.707L781.436 673.111L792.43 672.733L789.013 351.508L781.436 348.944L779.776 348.397H758.149Z" fill="#F1C0C0"/>
<path opacity="0.1" d="M758.306 348.347V348.397L761.987 563.402L763.969 673.707L781.436 673.111V348.347H758.306Z" fill="black"/>
<path d="M484.538 403.306C485.563 403.873 486.543 404.521 487.467 405.244C488.561 406.219 489.544 407.316 490.397 408.514C494.585 414.03 498.452 420.44 498.042 427.397C498.05 428.409 497.863 429.413 497.489 430.351C497.115 431.289 496.563 432.142 495.864 432.863C494.136 434.363 491.656 434.433 489.391 434.433C486.93 434.433 484.343 434.433 482.215 433.141C480.086 431.849 478.309 429.335 475.79 429.394C475.434 429.454 475.072 429.454 474.716 429.394C473.847 429.106 473.671 427.943 473.105 427.208C472.129 425.886 470.068 426.214 468.535 426.79C467.003 427.367 465.304 428.231 463.79 427.566C462.912 427.094 462.194 426.363 461.73 425.469C458.108 419.506 457.336 412.34 456.653 405.413C456.233 401.199 453.031 386.828 461.867 390.098C465.772 391.529 469.424 394.392 472.978 396.488L484.538 403.306Z" fill="#3F3D56"/>
<path d="M475.81 404.727C476.599 405.305 477.555 405.598 478.527 405.558C479.498 405.518 480.429 405.149 481.17 404.509C482.624 403.171 483.55 401.342 483.777 399.361C484.753 399.053 485.251 400.354 485.876 401.149C486.97 402.501 489.196 402.481 490.192 403.922C490.885 404.916 490.729 406.298 491.217 407.421C491.852 408.872 493.424 409.627 494.498 410.8C495.512 412.081 496.244 413.569 496.646 415.162L498.247 420.052C499.013 422.086 499.506 424.215 499.712 426.383C499.812 427.466 499.7 428.56 499.382 429.599C499.063 430.638 498.545 431.602 497.856 432.435C495.708 434.791 492.184 435.039 489.069 434.97C488.029 434.992 486.991 434.868 485.984 434.602C483.22 433.727 481.453 430.895 480.721 428.043C479.989 425.19 480.067 422.199 479.637 419.277C479.173 416.407 478.353 413.608 477.196 410.949C476.337 408.881 473.974 405.801 474.013 403.604C474.716 403.604 475.224 404.26 475.81 404.727Z" fill="#3F3D56"/>
<path d="M479.315 394.66C478.858 393.249 478.592 391.781 478.524 390.297C478.524 387.315 479.862 384.513 481.209 381.849L470.049 383.39C468.702 383.579 467.198 383.857 466.436 385C466.147 385.566 465.996 386.195 465.996 386.833C465.996 387.472 466.147 388.101 466.436 388.667C466.996 389.801 467.441 390.99 467.764 392.215C467.79 393.287 467.91 394.355 468.126 395.405C468.473 396.177 468.96 396.874 469.561 397.462C472.754 401.06 475.146 405.304 477.528 409.508C477.46 409.388 484.255 404.032 483.982 402.283C483.826 401.289 481.863 400.096 481.238 399.142C480.375 397.757 479.726 396.245 479.315 394.66V394.66Z" fill="#BE6F72"/>
<path d="M575 355.831V365.62L410.314 398.317L401.771 403.584H372.294V398.069L534.099 358.276L575 355.831Z" fill="#F1C0C0"/>
<path opacity="0.1" d="M575 365.62L410.314 398.317L401.771 403.584H372.294L535.3 368.075L575 365.62Z" fill="black"/>
<path d="M442.779 633.726C440.944 631.464 438.411 629.901 435.592 629.291C432.773 628.681 429.834 629.06 427.254 630.366C426.702 630.631 426.215 631.018 425.829 631.499C424.852 632.891 425.477 634.809 425.565 636.528C425.79 640.722 422.509 644.131 419.56 647.063C417.978 648.633 416.367 650.313 415.655 652.449C414.942 654.586 415.469 657.299 417.383 658.412C418.218 658.839 419.127 659.095 420.058 659.168C423.179 659.787 426.379 659.878 429.529 659.436C432.644 658.83 435.7 657.031 437.047 654.109C437.307 653.317 437.737 652.594 438.307 651.992C440.025 650.611 442.661 652.231 444.614 651.247C446.225 650.432 446.294 649.15 446.313 647.46C446.372 642.789 445.688 637.502 442.779 633.726Z" fill="#006AB2"/>
<path d="M466.212 633.547C467.413 636.767 467.579 640.275 467.735 643.714C467.823 645.701 467.881 647.828 466.827 649.508C465.772 651.187 463.712 652.072 461.74 652.489C457.669 653.344 452.953 652.539 450.326 649.249C448.315 646.735 447.895 643.286 448.266 640.026C448.578 637.353 449.242 634.223 447.358 632.324C446.87 631.817 446.235 631.46 445.786 630.913C444.81 629.701 444.966 627.872 445.493 626.381C446.18 624.956 446.694 623.451 447.026 621.899C447.104 621.164 460.246 622.416 461.457 623.022C463.107 623.847 462.853 625.228 463.351 626.898C464.044 629.224 465.372 631.321 466.212 633.547Z" fill="#006AB2"/>
<path d="M468.623 490.773C471.201 492.473 472.197 495.812 472.597 498.913C473.701 507.41 471.767 515.997 471.621 524.573C471.484 536.589 474.901 548.823 471.982 560.46C470.234 567.417 471.718 575.368 470.078 582.394C469.59 584.481 468.692 586.449 468.223 588.536C467.247 593.058 468.272 597.789 469.649 602.211C470.088 603.403 470.367 604.65 470.478 605.918C470.412 607.87 469.926 609.784 469.053 611.523L463.195 625.626C462.541 627.206 459.963 627.465 458.313 627.673C455.208 628.051 451.742 628.319 449.272 626.361C446.801 624.403 446.206 621.124 445.825 618.063C445.095 612.187 444.768 606.265 444.849 600.343C444.956 598.797 444.821 597.244 444.448 595.741C443.911 594.042 442.73 592.571 442.408 590.772C441.997 588.447 443.159 586.161 443.589 583.815C443.884 581.673 443.851 579.498 443.491 577.366C443.111 574.185 442.671 571.005 442.173 567.845C441.47 563.422 442.476 559.059 443.15 554.627C443.784 550.463 442.974 546.219 442.173 542.085C442.242 545.44 441.831 548.788 440.953 552.023C440.435 553.603 439.693 555.114 439.244 556.724C437.242 563.949 441.509 571.532 440.904 579.015C440.621 582.514 439.273 585.972 439.654 589.421C439.918 591.945 441.07 594.261 441.861 596.666C442.652 599.071 443.062 601.824 441.861 604.07C438.688 610.172 441.06 618.47 443.901 624.731C444.478 625.842 444.98 626.991 445.405 628.17C446.245 630.993 445.542 634.024 445.766 636.965C444.949 637.102 444.111 637.046 443.318 636.804C442.524 636.561 441.795 636.137 441.187 635.564C440.757 635.107 440.406 634.57 439.986 634.093C438.813 632.955 437.424 632.073 435.905 631.499C435.013 630.991 433.996 630.753 432.976 630.814C431.903 631.119 430.937 631.729 430.193 632.573C429.227 633.437 428.203 634.231 427.127 634.948C426.669 635.306 426.133 635.548 425.565 635.654C425.279 635.699 424.987 635.651 424.729 635.517C424.471 635.383 424.262 635.17 424.13 634.908C424.069 634.742 424.033 634.568 424.022 634.392C423.66 631.391 423.467 628.371 423.446 625.348C423.446 620.15 417.334 616.572 416.563 611.434C415.948 607.29 417.09 603.066 416.709 598.892C416.524 596.745 415.938 594.638 415.977 592.492C415.977 591.1 416.289 589.739 416.397 588.357C416.486 586.824 416.463 585.286 416.328 583.756L416.026 578.956C415.733 574.215 415.411 569.375 413.575 565.042C411.398 559.982 410.11 554.574 409.767 549.061C409.572 545.583 409.699 542.104 409.308 538.616C408.957 535.466 408.176 532.335 408.4 529.175C408.586 526.73 409.377 524.365 409.562 521.92C409.943 517.219 408.185 512.647 406.809 508.145C405.432 503.643 404.417 498.654 406.223 494.311C406.481 493.598 406.911 492.963 407.473 492.463C408.165 491.996 408.953 491.697 409.777 491.588C426.529 488.006 443.7 486.892 460.763 488.279C463.545 488.439 466.245 489.296 468.623 490.773Z" fill="#3F3D56"/>
<path d="M413.194 385.218C421.833 385.218 428.836 378.09 428.836 369.297C428.836 360.504 421.833 353.376 413.194 353.376C404.556 353.376 397.553 360.504 397.553 369.297C397.553 378.09 404.556 385.218 413.194 385.218Z" fill="#BE6F72"/>
<path d="M410.168 389.184C410.392 390.094 410.392 391.047 410.168 391.957C409.922 392.593 409.575 393.183 409.142 393.706C407.628 395.694 405.953 397.549 404.134 399.251C405.06 401.358 406.729 403.035 408.81 403.952C410.877 404.848 413.045 405.478 415.264 405.83C416.372 406.127 417.525 406.208 418.662 406.069C419.71 405.801 420.702 405.343 421.591 404.717L430.281 399.42C431.592 398.697 432.806 397.805 433.894 396.767C435.487 395.099 436.389 392.872 436.413 390.545C436.453 390.129 436.342 389.711 436.1 389.373C435.767 389.078 435.349 388.9 434.909 388.866C431.853 388.18 429.441 385.656 428.074 382.793C426.839 379.859 426.039 376.754 425.702 373.581L416.436 378.55C415.059 379.295 413.692 380.041 412.267 380.687C411.359 381.104 409.523 381.452 408.879 382.297C407.648 383.857 409.845 387.305 410.168 389.184Z" fill="#BE6F72"/>
<path d="M404.192 396.359C402.873 397.46 401.843 398.877 401.195 400.484C400.589 402.471 401.195 404.568 401.741 406.536C404.304 414.923 406.262 423.49 407.6 432.167C408.42 438.13 408.723 444.182 409.123 450.215C409.943 462.519 411.134 482.137 412.726 494.361C418.584 494.629 424.296 492.89 430.105 492.254C440.963 491.081 452.142 493.765 462.775 491.26C460.197 480.894 457.62 463.194 455.042 452.839C453.901 448.759 453.111 444.585 452.679 440.366C452.455 437.335 452.591 434.294 452.63 431.243C452.718 425.28 452.396 419.317 452.074 413.354C451.703 406.397 451.332 399.44 449.711 392.632C449.598 391.765 449.199 390.962 448.578 390.357C447.602 389.631 446.333 389.889 445.171 390.049C441.613 390.508 438.012 389.64 435.036 387.604C433.747 386.709 432.019 385.616 430.818 386.61C430.305 387.209 429.967 387.942 429.842 388.727C429.31 390.133 428.49 391.407 427.436 392.464C426.382 393.522 425.118 394.338 423.729 394.859C420.947 395.884 418.033 396.494 415.079 396.667C414.175 396.865 413.232 396.757 412.394 396.359C411.007 395.495 410.91 392.384 409.162 392.175C407.629 391.996 405.227 395.356 404.192 396.359Z" fill="#3F3D56"/>
<path d="M427.293 420.629C423.69 417.12 422.109 412.032 419.482 407.709C417.694 404.802 415.409 402.244 412.735 400.156C411.391 399.252 410.159 398.188 409.064 396.985C408.137 395.823 407.434 394.272 406.028 393.825C405.447 393.696 404.844 393.713 404.271 393.874C403.697 394.035 403.171 394.335 402.737 394.749C401.877 395.584 401.062 396.467 400.296 397.393C396.157 401.756 388.882 402.362 385.602 407.411C384.717 408.481 384.115 409.764 383.854 411.138C382.91 418.486 384.776 425.922 389.068 431.909C389.899 433.296 391.175 434.349 392.681 434.89C392.476 436.743 392.718 438.619 393.384 440.356C395.191 446.646 397.413 452.805 400.033 458.792C399.406 461.133 398.969 463.523 398.724 465.937C398.041 472.01 398.676 478.171 398.031 484.254C397.504 489.223 396.078 494.063 396.03 499.042C396.03 499.837 396.098 500.781 396.772 501.188C397.13 501.376 397.531 501.462 397.934 501.437L409.943 501.805C416.914 502.013 423.954 502.222 430.818 500.91C431.732 500.773 432.619 500.487 433.444 500.065C435.768 498.744 436.54 495.762 436.911 493.109C437.395 489.667 437.588 486.189 437.487 482.713C438.941 487.394 440.67 492.234 445.063 494.261C447.387 495.335 450.043 495.255 452.591 495.186C458.084 494.937 463.558 494.363 468.985 493.466C469.319 493.509 469.659 493.471 469.976 493.355C470.293 493.24 470.58 493.051 470.812 492.802C471.045 492.554 471.217 492.254 471.315 491.926C471.413 491.597 471.434 491.25 471.377 490.912L471.435 485.486C471.553 474.464 468.868 463.93 467.823 452.958C467.491 449.499 467.52 446.001 466.69 442.612C466.348 441.191 465.851 439.8 465.548 438.368C465.287 436.967 465.124 435.549 465.06 434.125L464.298 423.193C463.937 418.134 463.419 413.254 463.039 408.206C462.829 403.29 462.129 398.408 460.949 393.636C460.1 390.655 458.332 387.276 455.276 386.908C453.646 386.719 452.064 387.445 450.512 387.951C446.696 389.174 442.601 389.157 438.795 387.902C437.619 387.429 436.394 387.096 435.143 386.908C434.514 386.821 433.873 386.905 433.286 387.153C432.699 387.401 432.188 387.804 431.804 388.319C431.425 389.096 431.247 389.958 431.287 390.824C430.828 400.752 429.978 410.979 427.293 420.629Z" fill="#006AB2"/>
<path d="M411.583 420.927C407.082 416.097 402.464 411.177 396.664 408.106C394.38 406.894 391.782 405.98 389.254 406.437C386.725 406.894 384.372 409.13 384.489 411.744C384.567 413.364 385.534 414.795 385.836 416.385C386.188 418.174 385.68 420.082 386.227 421.811C386.671 422.951 387.335 423.988 388.18 424.862L395.092 433.201C398.021 436.679 400.951 440.207 404.719 442.612C408.488 445.017 413.37 446.14 417.51 444.431C420.455 443.037 422.904 440.749 424.52 437.881C426.239 435.099 427.45 432.058 429.061 429.185C431.568 424.596 434.877 420.511 438.824 417.13C436.793 416.594 434.245 415.838 432.966 414.149C432.602 413.612 432.291 413.039 432.039 412.439L430.457 408.961C429.919 408.933 429.381 409.018 428.877 409.211C428.373 409.404 427.913 409.701 427.528 410.084C426.849 410.882 426.122 411.636 425.35 412.34C423.974 413.394 422.109 413.682 420.859 414.884C420.375 415.401 419.938 415.959 419.551 416.554C418.605 417.819 417.406 418.863 416.031 419.617C414.657 420.371 413.141 420.818 411.583 420.927V420.927Z" fill="#3F3D56"/>
<path d="M439.186 400.146C442.574 393.855 442.417 386.312 443.384 379.206C443.489 377.324 444.138 375.516 445.249 374.008C447.202 371.762 450.648 371.732 453.597 372.02C454.466 372.12 455.55 372.537 455.501 373.422C455.432 373.739 455.281 374.031 455.062 374.266C452.204 378.021 450.523 382.565 450.238 387.305C451.771 388.389 454.144 386.163 455.618 387.305C456.594 388.14 456.145 389.79 455.56 390.983C454.199 393.745 452.796 396.488 451.351 399.212C450.198 401.612 448.693 403.82 446.889 405.761C445.649 406.973 444.194 407.927 442.935 409.12C440.006 411.913 438.239 415.858 435.212 418.581C434.956 418.863 434.61 419.043 434.235 419.088C433.85 419.06 433.487 418.895 433.21 418.621C431.698 417.369 430.444 415.826 429.519 414.079C428.367 411.913 428.543 411.277 430.359 409.746C433.757 407.013 437.067 404.081 439.186 400.146Z" fill="#BE6F72"/>
<path d="M405.92 416.653C406.506 417.021 407.229 417.438 407.873 417.13C408.136 416.968 408.36 416.747 408.527 416.484C409.643 414.968 410.575 413.32 411.3 411.575C411.425 411.328 411.495 411.057 411.505 410.78C411.505 410.144 410.949 409.677 410.431 409.309C407.658 407.51 404.677 406.068 401.556 405.016C398.978 404.022 396.283 403.157 393.55 403.406C392.522 403.476 391.52 403.757 390.602 404.232C389.684 404.706 388.87 405.365 388.209 406.168C386.256 408.723 389.527 409.498 391.577 410.422C396.323 412.618 401.458 413.89 405.92 416.653Z" fill="#006AB2"/>
<path opacity="0.1" d="M402.845 433.548C402.812 433.775 402.832 434.007 402.903 434.224C402.974 434.442 403.095 434.639 403.255 434.801C403.538 433.389 403.167 431.899 403.46 430.477C403.889 428.341 405.93 426.731 406.106 424.584C402.366 423.839 402.874 431.243 402.845 433.548Z" fill="black"/>
<path opacity="0.2" d="M575 355.831V365.62L535.301 368.075L534.1 358.276L575 355.831Z" fill="black"/>
<path d="M399.115 371.663C401.595 369.605 400.16 365.292 401.839 362.529C402.815 361.019 404.465 360.224 406.086 359.548C408.042 358.616 410.138 358.025 412.286 357.799C413.362 357.693 414.447 357.836 415.462 358.217C416.476 358.597 417.393 359.205 418.145 359.995C418.779 360.73 419.209 361.625 419.804 362.39C420.542 363.283 421.503 363.956 422.586 364.337C423.669 364.719 424.834 364.795 425.956 364.557C427.254 364.259 428.602 363.255 428.514 361.903C428.367 361.081 427.955 360.333 427.342 359.776L424.55 356.626C421.376 353.048 417.852 349.252 413.194 348.357C409.953 347.731 406.633 348.616 403.509 349.679C402.249 350.106 400.833 350.742 400.482 352.044C400.248 352.939 400.599 353.913 400.394 354.817C399.994 356.616 397.728 357.222 396.674 358.733C395.619 360.244 395.942 362.032 395.639 363.702C395.336 365.372 394.458 367.002 394.35 368.731C394.282 369.774 394.799 371.712 395.951 372.09C397.104 372.468 398.402 370.42 399.115 371.663Z" fill="#3F3D56"/>
<path d="M427.567 360.472C426.743 356.099 424.968 351.97 422.372 348.387C420.064 345.039 416.852 342.444 413.126 340.913C411.263 340.173 409.26 339.871 407.266 340.031C405.272 340.191 403.34 340.809 401.614 341.838C399.053 343.699 397.059 346.258 395.864 349.222C393.335 354.767 392.397 361.545 395.336 366.872C396.508 365.421 398.519 366.077 400.296 365.551C402.522 364.905 404.407 363.394 406.526 362.45C412.921 359.578 420.732 361.903 427.567 360.472Z" fill="#FED253"/>
<path opacity="0.1" d="M396.83 360.164C396.606 358.375 396.459 356.298 397.709 355.026C397.771 354.948 397.85 354.886 397.94 354.844C398.03 354.803 398.128 354.783 398.227 354.787C398.314 354.816 398.394 354.863 398.463 354.924C398.532 354.986 398.587 355.061 398.627 355.145C399.348 356.304 399.963 357.528 400.462 358.802C399.735 358.632 398.973 358.687 398.277 358.962C397.581 359.237 396.982 359.718 396.557 360.343" fill="black"/>
<path opacity="0.1" d="M419.648 355.115L419.297 351.567C419.24 351.275 419.264 350.972 419.365 350.693C419.512 350.459 419.739 350.289 420.003 350.215C420.266 350.142 420.547 350.17 420.79 350.295C421.271 350.566 421.667 350.969 421.933 351.458C422.746 352.728 423.42 354.084 423.944 355.503C422.372 355.195 420.754 355.215 419.189 355.563" fill="black"/>
<path opacity="0.1" d="M428.387 499.111V507.221L421.659 507.678H386.275V499.111H428.387Z" fill="black"/>
<path d="M428.387 499.111V507.678H386.275L274.402 365.034V358.296H297.854L428.387 499.111Z" fill="#F1C0C0"/>
<path opacity="0.1" d="M428.387 499.111V507.678H386.275L274.402 365.034V358.296H297.854L428.387 499.111Z" fill="black"/>
<path opacity="0.1" d="M428.387 499.111V507.678H386.275L274.402 365.034V358.296L386.881 499.111H428.387Z" fill="black"/>
<path d="M289.067 642.084C289.141 642.487 289.132 642.901 289.041 643.301C288.95 643.7 288.78 644.076 288.539 644.405C288.299 644.735 287.995 645.01 287.646 645.214C287.296 645.418 286.909 645.547 286.509 645.592C283.795 646.526 280.914 647.45 278.991 649.567C277.067 651.684 276.687 655.61 278.991 657.329C280.169 658.052 281.521 658.427 282.896 658.412C287.319 658.72 291.928 658.661 295.941 656.753C298.811 655.401 301.516 653.095 304.67 653.304C306.3 653.403 308.038 654.179 309.493 653.423C310.948 652.668 311.358 650.561 311.368 648.802C311.405 645.13 310.861 641.475 309.757 637.979C309.61 637.502 303.4 637.134 302.658 636.985L295.131 635.992C293.705 635.803 290.629 634.709 289.507 635.922C288.384 637.134 289.067 640.643 289.067 642.084Z" fill="#006AB2"/>
<path d="M333.99 617.278C334.309 619.068 334.827 620.815 335.533 622.485C336.578 625.189 337.915 628.061 340.473 629.373C342.797 630.555 345.648 630.128 348.011 629.005C348.997 628.589 349.862 627.922 350.52 627.067C351.283 625.715 351.623 624.158 351.497 622.605C351.497 618.759 351.272 614.783 349.544 611.364C348.06 608.383 345.473 605.819 345.433 602.519L336.539 604.269C336.062 604.315 335.609 604.498 335.23 604.795C334.948 605.097 334.753 605.472 334.664 605.879C333.714 609.598 333.485 613.47 333.99 617.278V617.278Z" fill="#006AB2"/>
<path d="M227.77 522.864C227.399 526.064 227.555 529.493 229.195 532.256C230.836 535.018 234.292 536.847 237.28 535.744C237.433 535.704 237.577 535.633 237.702 535.536C237.828 535.439 237.934 535.317 238.012 535.177C238.092 534.842 238.046 534.488 237.885 534.184C236.566 530.601 236.675 526.635 238.188 523.132C238.383 522.675 238.803 522.138 239.262 522.317C239.454 522.416 239.608 522.577 239.701 522.774C240.174 523.607 240.411 524.556 240.385 525.517C240.247 526.388 240.221 527.273 240.307 528.151C240.492 529.006 241.39 529.811 242.172 529.443C242.397 529.302 242.593 529.115 242.745 528.895C242.898 528.675 243.005 528.425 243.06 528.161C245.237 521.751 244.251 514.744 243.255 508.036C243.264 507.882 243.239 507.728 243.182 507.585C243.125 507.442 243.039 507.313 242.928 507.208C242.817 507.102 242.685 507.023 242.541 506.976C242.396 506.928 242.244 506.914 242.093 506.933C237.485 506.466 234.966 505.343 232.33 509.706C230.064 513.383 227.77 518.441 227.77 522.864Z" fill="#006AB2"/>
<path d="M281.647 506.555C280.28 512.339 278.903 518.193 278.815 524.136C278.839 527.838 279.113 531.534 279.635 535.197L280.661 543.804C281.012 546.706 281.354 549.598 281.852 552.47C282.169 553.95 282.343 555.458 282.369 556.972C282.273 558.465 282.041 559.946 281.676 561.395C281.062 564.438 280.719 567.531 280.651 570.637C280.543 575.606 281.149 580.576 281.53 585.545C282.29 595.447 282.175 605.399 281.188 615.28C280.794 617.947 281.362 620.67 282.789 622.943C283.368 623.659 283.845 624.456 284.205 625.308C284.937 627.584 283.228 629.86 282.789 632.195C282.508 634.016 282.949 635.876 284.014 637.367C285.08 638.858 286.683 639.857 288.472 640.146C296.283 641.09 304.308 640.663 311.348 644.3C312.09 642.094 310.469 639.589 311.211 637.343C311.68 635.952 312.969 635.047 313.848 633.875C315.028 632.088 315.617 629.964 315.527 627.812C315.562 625.004 315.071 622.215 314.082 619.593C313.252 617.407 312.061 615.25 312.129 612.905C312.129 611.752 312.53 610.54 312.071 609.476C311.756 608.865 311.328 608.322 310.811 607.876C307.893 604.622 306.1 600.487 305.705 596.099C305.324 591.745 305.462 587.361 306.115 583.04C306.593 578.926 307.238 574.583 309.806 571.373C308.615 561.639 309.315 551.762 311.866 542.303C312.12 541.429 312.52 540.415 313.399 540.206C313.748 540.17 314.1 540.219 314.427 540.351C314.753 540.482 315.043 540.692 315.273 540.962C316.806 542.422 317.538 544.539 318.202 546.567C318.935 548.763 319.677 551.108 319.12 553.355C318.886 554.348 318.417 555.223 318.144 556.177C317.55 558.094 317.654 560.165 318.437 562.011C318.818 562.685 319.058 563.433 319.14 564.207C319.049 564.872 318.851 565.517 318.554 566.115C318.192 567.291 318.077 568.532 318.216 569.756C318.356 570.98 318.747 572.161 319.364 573.221C320.609 575.332 322.144 577.249 323.924 578.916C323.074 582.73 323.294 586.711 324.559 590.405C324.65 590.571 324.708 590.754 324.73 590.943C324.752 591.133 324.737 591.324 324.686 591.508C324.51 591.885 324.061 592.024 323.709 592.293C322.733 593.108 323.338 594.648 323.992 595.712C325.785 598.63 327.765 601.426 329.919 604.08C331.872 606.455 331.696 611.036 334.606 611.891C335.828 612.16 337.093 612.16 338.316 611.891C341.186 611.444 344.389 610.599 345.795 608.015C346.371 606.952 346.605 605.66 347.504 604.865C348.402 604.07 349.564 603.931 350.062 602.976C350.56 602.022 350.003 600.77 350.169 599.667C350.335 598.564 351.282 597.679 351.585 596.517C352.307 593.833 349.232 591.627 348.812 588.884C348.207 584.909 353.127 581.927 352.922 577.952C352.493 569.315 352.219 560.639 351.78 552.003C351.229 544.267 351.15 536.503 351.546 528.757C351.887 523.937 352.522 518.889 350.784 514.406C348.285 508.086 341.391 504.538 334.723 503.862C328.054 503.186 321.405 504.796 314.795 505.849C303.824 507.57 292.678 507.808 281.647 506.555V506.555Z" fill="#3F3D56"/>
<path d="M301.467 411.565C310.106 411.565 317.109 404.437 317.109 395.644C317.109 386.851 310.106 379.723 301.467 379.723C292.828 379.723 285.825 386.851 285.825 395.644C285.825 404.437 292.828 411.565 301.467 411.565Z" fill="#FBBEBE"/>
<path d="M295.101 414.536C294.57 415.796 293.676 416.862 292.538 417.595C291.4 418.327 290.071 418.692 288.725 418.641C288.159 421.026 289.516 423.431 291.069 425.31C294.292 429.128 298.458 432.002 303.137 433.635C307.815 435.269 312.837 435.602 317.685 434.602C319.571 434.258 321.361 433.498 322.928 432.376C325.041 430.58 326.459 428.08 326.931 425.319C327.381 422.578 327.508 419.793 327.312 417.021C327.367 416.474 327.213 415.926 326.882 415.49C326.492 415.183 326.009 415.021 325.515 415.033C322.215 414.735 318.769 414.606 315.869 412.956C312.969 411.306 310.909 407.58 312.305 404.519C312.08 404.996 306.378 405.224 305.627 405.324C303.273 405.662 300.92 406.039 298.577 406.476C297.451 406.539 296.338 406.753 295.267 407.112C293.851 407.858 294.379 407.49 294.711 408.842C295.209 410.909 295.941 412.39 295.101 414.536Z" fill="#FBBEBE"/>
<path d="M307.003 424.216C304.897 424.241 302.795 424.004 300.745 423.511C298.675 423.019 296.85 421.779 295.609 420.022C294.886 418.909 294.418 417.508 293.266 416.882C291.381 415.888 289.233 417.568 287.73 419.108C286.36 420.627 284.774 421.927 283.023 422.964C280.934 424.087 278.493 424.485 276.521 425.806C274.98 426.992 273.658 428.445 272.615 430.1L258.78 449.281C253.224 456.993 248.391 465.271 243.441 473.411C239.155 480.457 236.909 488.567 233.677 496.17C233.421 496.635 233.315 497.17 233.374 497.7C233.492 498.217 234.107 498.634 234.536 498.336C233.082 499.807 234.361 502.312 234.019 504.379C233.63 505.825 232.82 507.118 231.695 508.086C233.844 507.8 236.026 507.905 238.139 508.394C240.323 509.024 242.384 510.032 244.232 511.375C245.413 511.186 245.306 509.05 246.185 508.255C246.712 507.787 247.493 507.847 248.186 507.708C250.793 507.191 251.828 504.001 253.83 502.202C255.499 500.702 257.862 500.214 259.629 498.803C262.5 496.508 263.115 492.423 264.619 489.034C265.898 486.162 267.909 483.657 269.032 480.716C269.764 478.807 270.116 476.74 271.16 474.981C272.83 472.139 275.974 470.628 278.971 469.267C280.866 468.402 282.877 467.508 284.918 467.647C284.81 472.268 284.234 476.82 285.22 481.332C285.562 482.922 286.04 484.472 286.45 486.052C288.315 493.168 288.755 500.582 288.843 507.917C293.329 506.872 297.91 506.312 302.512 506.247C306.134 506.138 309.747 506.615 313.369 506.545C317.665 506.466 321.913 505.621 326.209 505.323C330.505 505.025 334.996 505.323 338.794 507.31C338.486 501.012 338.659 494.699 339.312 488.428L340.347 478.549C340.58 475.679 341.014 472.829 341.645 470.022C342.212 467.756 343.032 465.57 343.657 463.314C345.853 455.363 345.453 446.876 345.033 438.597C344.818 434.343 343.207 430.159 341.313 426.373C340.628 424.966 339.845 423.611 338.97 422.318C336.681 419.108 333.631 416.54 330.103 414.855C326.576 413.169 322.687 412.42 318.798 412.678C318.301 412.694 317.812 412.801 317.353 412.996C316.529 413.533 315.885 414.313 315.508 415.232C313.487 418.928 310.556 422.024 307.003 424.216Z" fill="#3F3D56"/>
<path d="M287.71 400.921C288.149 399.927 289.331 399.559 290.053 398.764C291.44 397.254 290.815 394.839 291.03 392.801C291.381 389.82 293.812 387.325 296.595 386.262C299.433 385.335 302.452 385.14 305.383 385.696C306.793 385.8 308.155 386.261 309.347 387.037C309.854 387.415 310.323 387.902 310.801 388.25C311.674 388.786 312.717 388.955 313.71 388.719C314.702 388.483 315.564 387.862 316.113 386.987C312.657 382.754 308.829 378.282 303.576 376.98C301.774 376.605 299.938 376.429 298.099 376.453C295.668 376.403 293.158 376.363 290.913 377.308C287.857 378.59 285.708 381.541 284.605 384.722C283.64 387.945 283.124 391.29 283.072 394.66C282.872 396.908 282.872 399.17 283.072 401.418C283.45 404.488 284.57 407.415 286.333 409.935C286.572 410.326 286.909 410.646 287.31 410.859C291.762 412.847 287.349 401.746 287.71 400.921Z" fill="#3F3D56"/>
<path d="M315.605 384.533C315.068 379.852 311.787 375.986 308.302 372.875C305.492 370.178 302.146 368.127 298.489 366.862C294.808 365.759 290.571 365.998 287.417 368.234C284.878 370.033 283.267 372.895 282.027 375.777C280.398 379.178 279.592 382.926 279.674 386.709C279.918 390.466 281.715 394.272 284.917 396.17C286.07 394.441 288.071 393.547 289.995 392.841C298.378 389.604 306.927 386.83 315.605 384.533V384.533Z" fill="#FED253"/>
<path opacity="0.1" d="M285.992 382.585C286.304 382.585 286.509 382.913 286.665 383.181C287.46 384.442 288.143 385.772 288.706 387.156C287.564 387.405 285.601 387.683 285.035 386.66C284.732 386.143 285.093 382.535 285.992 382.585Z" fill="black"/>
<path opacity="0.1" d="M308.243 380.339C308.009 380.567 307.735 380.1 307.735 379.762V375.906C307.729 375.799 307.753 375.692 307.804 375.598C307.844 375.551 307.894 375.513 307.949 375.485C308.004 375.458 308.065 375.442 308.126 375.439C308.917 375.35 309.571 376.035 310.079 376.691C310.849 377.754 311.519 378.889 312.08 380.08L307.95 379.951" fill="black"/>
<path d="M359.786 444.192C360.685 443.324 361.644 442.524 362.657 441.797C365.362 439.959 368.632 439.233 371.669 438.06C374.706 436.888 377.791 434.989 378.972 431.909C379.564 429.982 379.757 427.952 379.539 425.946C379.567 425.106 379.421 424.269 379.109 423.491C378.737 422.803 378.208 422.217 377.566 421.781C373.446 418.681 367.92 418.432 362.803 418.75C351.524 419.462 340.468 422.272 330.183 427.039C329.639 427.222 329.162 427.568 328.816 428.033C328.615 428.463 328.525 428.938 328.552 429.414C328.37 432.345 328.745 435.284 329.655 438.07C331.003 441.608 333.776 444.461 334.938 448.068C335.465 449.688 335.641 451.408 336.099 453.037C336.476 454.721 337.454 456.201 338.843 457.192C342.7 459.537 346.342 456.387 349.017 453.942L359.786 444.192Z" fill="#3F3D56"/>
<path d="M309.278 457.957L304.328 446.965C303.602 445.442 302.976 443.871 302.453 442.264C301.887 440.346 301.614 438.359 301.086 436.43C299.349 430.01 294.965 424.664 292.826 418.373C292.691 417.805 292.416 417.281 292.026 416.852C291.714 416.627 291.357 416.475 290.98 416.407C290.604 416.338 290.218 416.354 289.848 416.454C286.861 416.981 284.527 419.297 281.793 420.609C280.524 421.205 279.157 421.603 277.888 422.288C277.253 422.594 276.691 423.036 276.239 423.583C275.788 424.13 275.458 424.77 275.271 425.459C274.968 426.979 275.71 428.44 276.335 429.921C278.991 436.023 279.596 442.841 279.714 449.519C279.801 454.011 279.577 458.831 276.97 462.439C271.961 469.396 275.164 479.612 277.038 488.03C277.263 489.024 277.526 490.097 277.683 491.151C277.848 492.469 277.923 493.797 277.907 495.126C277.907 499.588 277.663 504.19 275.828 508.235C277.64 509.216 279.637 509.792 281.686 509.924C287.355 510.66 293.048 511.176 298.763 511.475C300.553 511.646 302.359 511.552 304.123 511.196C306.218 510.62 308.065 509.35 309.371 507.586C310.678 505.822 311.37 503.666 311.338 501.457C311.651 504.21 312.227 507.201 314.19 509.109C316.152 511.017 319.013 511.306 321.678 511.455C329.201 511.861 336.744 511.645 344.233 510.809C344.711 510.787 345.181 510.676 345.619 510.481C347.064 509.745 347.142 507.718 347.025 506.088C346.81 503.037 346.586 499.986 346.225 496.955C345.918 495.022 345.762 493.068 345.756 491.111C345.905 489.098 346.232 487.102 346.732 485.148C348.041 478.946 349.076 472.616 348.636 466.265C348.463 464.718 348.401 463.16 348.451 461.604C348.705 458.096 350.521 454.757 350.179 451.268C349.202 441.012 348.412 430.487 345.6 420.589C345.092 418.82 344.448 416.922 342.934 415.908C340.981 414.576 338.238 415.272 336.002 414.427C334.953 413.93 333.955 413.328 333.024 412.628C331.001 411.34 328.681 410.614 326.297 410.521C324.5 410.452 322.498 410.859 321.415 412.33C320.913 413.158 320.581 414.081 320.438 415.043C319.023 421.106 317.363 427.098 315.703 433.091L314.111 438.836L309.845 454.26C309.425 455.9 309.708 456.406 309.278 457.957Z" fill="#006AB2"/>
<path d="M334.244 397.78L428.689 498.803V507.37H386.578L315.605 413.085" fill="#F1C0C0"/>
<path opacity="0.1" d="M334.244 397.78L428.689 498.803V507.37H386.578L315.605 413.085" fill="black"/>
<path opacity="0.1" d="M317.109 411.754L317.411 411.863L387.183 498.803H428.689V507.37H386.578L315.605 413.085L317.109 411.754Z" fill="black"/>
<path d="M327.976 413.881C324.559 415.401 320.76 417.349 319.735 421.006C319.533 421.648 319.489 422.331 319.608 422.994C319.858 423.774 320.334 424.458 320.974 424.957C321.614 425.455 322.387 425.745 323.192 425.787C324.799 425.826 326.398 425.529 327.888 424.912L348.05 418.134C348.597 417.955 349.222 417.687 349.359 417.14C349.394 416.797 349.326 416.45 349.163 416.146C348.538 414.596 347.923 411.426 346.615 410.343C345.541 409.468 343.412 409.776 342.114 409.796C337.115 409.836 332.418 411.893 327.976 413.881Z" fill="#006AB2"/>
<path d="M345.951 418.939C349.348 418.929 352.725 419.462 355.959 420.519C359.208 421.593 362.085 423.594 364.248 426.283C364.879 427.035 365.327 427.927 365.557 428.887C365.752 429.881 368.935 430.477 368.232 431.153C370.37 430.805 369.863 431.829 372.03 431.809C374.198 431.789 376.541 431.223 377.84 429.464C378.742 428.019 379.144 426.308 378.982 424.604C379.01 423.424 378.791 422.252 378.338 421.165C377.361 419.078 375.116 417.955 373.046 416.991L355.607 408.872C354.596 408.324 353.51 407.932 352.385 407.709C351.439 407.618 350.485 407.641 349.544 407.778L341.645 408.703C343.373 409.841 344.779 411.417 345.726 413.276C346.673 415.136 347.127 417.214 347.045 419.307" fill="#3F3D56"/>
</g>
<defs>
<clipPath id="clip0_10_872">
<rect width="1150" height="720" fill="white"/>
</clipPath>
</defs>
</svg>
